<svg
    version="1.0"
    xmlns="http://www.w3.org/2000/svg"
    width="4000.000000pt"
    height="4000.000000pt"
    viewBox="0 0 4000.000000 4000.000000"
    preserveAspectRatio="xMidYMid meet">
    <g transform="translate(0.000000,4000.000000) scale(0.100000,-0.100000)">
        <path
            d="M28170 38320 c-555 -64 -1021 -375 -1298 -867 -74 -132 -134 -296 -175 -483 l-21 -95 -3 -2607 -3 -2608 -3316 0 c-3586 0 -3405 3 -3604 -51 -473 -128 -871 -457 -1081 -894 -108 -224 -157 -419 -166 -656 -5 -135 2 -229 98 -1192 l104 -1045 115 -27 c569 -132 1286 -343 1931 -571 1012 -355 2072 -850 2964 -1382 715 -426 1498 -990 2055 -1480 47 -42 116 -103 155 -136 171 -150 506 -472 692 -666 441 -458 803 -892 1153 -1380 1268 -1769 2005 -3814 2184 -6060 51 -632 55 -951 62 -5250 3 -2159 8 -3928 10 -3931 2 -4 5 -926 6 -2050 2 -1124 4 -2309 6 -2632 l2 -588 1533 4 c1645 3 1576 1 1817 53 541 116 989 358 1380 746 416 412 698 959 790 1533 11 72 216 2092 455 4489 240 2398 548 5487 685 6865 138 1378 329 3294 425 4256 96 963 366 3666 600 6009 292 2927 425 4295 425 4375 0 747 -492 1401 -1203 1600 -233 65 18 61 -3631 61 l-3316 0 0 2483 c0 1504 -4 2531 -10 2607 -23 289 -97 535 -230 756 -258 431 -668 712 -1165 800 -102 18 -328 25 -425 14z"
            fill="#02C543"
            stroke="none"/>
        <path
            d="M13555 25003 c-132 -4 -581 -31 -805 -49 -416 -32 -965 -100 -1405 -174 -982 -166 -1868 -394 -2710 -700 -93 -34 -199 -72 -235 -85 -36 -13 -148 -57 -250 -98 -885 -356 -1762 -824 -2450 -1306 -74 -52 -149 -104 -165 -115 -169 -116 -626 -483 -860 -691 -654 -583 -1250 -1286 -1690 -1995 -240 -387 -483 -862 -657 -1285 -196 -477 -368 -1041 -458 -1500 -38 -194 -47 -310 -38 -476 30 -559 411 -1103 951 -1359 206 -98 390 -145 615 -160 202 -13 21348 -13 21539 0 423 29 803 203 1098 503 236 241 383 516 447 841 28 144 30 395 4 531 -27 140 -142 604 -192 775 -343 1167 -904 2216 -1683 3144 -542 645 -1195 1240 -1926 1752 -481 337 -897 584 -1470 874 -577 291 -1027 480 -1705 717 -1406 490 -3011 783 -4675 853 -204 9 -1040 11 -1280 3z"
            fill="#000000"
            stroke="none"/>
        <path
            d="M3145 11653 c-404 -52 -793 -256 -1052 -551 -559 -637 -563 -1541 -11 -2190 95 -111 199 -202 338 -294 197 -131 370 -203 601 -250 l114 -23 11030 0 11030 0 114 23 c628 127 1122 586 1294 1202 53 187 69 474 38 675 -34 223 -125 462 -250 652 -159 242 -344 417 -578 547 -186 105 -365 167 -578 201 -79 13 -1479 15 -11075 13 -6042 0 -10998 -3 -11015 -5z"
            fill="#000000"
            stroke="none"/>
        <path
            d="M3215 4989 c-790 -55 -1446 -685 -1535 -1474 -91 -806 447 -1585 1237 -1790 228 -59 -674 -55 11248 -55 11922 0 11020 -4 11248 55 484 125 900 479 1103 936 168 380 189 793 58 1189 -138 418 -443 772 -832 965 -169 84 -277 119 -497 163 -73 15 -1045 16 -11000 18 -6006 0 -10969 -2 -11030 -7z"
            fill="#000000"
            stroke="none"/>
    </g>
</svg>
