<svg
    xmlns="http://www.w3.org/2000/svg"
    viewBox="75 75 275 275"
    id="vector">
    <path
        id="path"
        d="M 267.9 87.9 L 264 91.8 L 264 111.9 L 264 132 L 239.8 132 C 218.7 132 215 132.2 212 133.8 C 206.5 136.5 204.9 140.8 205.7 151.1 L 206.3 159.6 L 214.4 161.9 C 218.8 163.1 227.5 166.6 233.6 169.5 C 261 182.8 277.5 201.6 285.2 228.6 C 287.3 236.3 287.4 238 287.8 292.2 L 288.1 348 L 300.6 348 C 308.8 348 314.2 347.5 316.3 346.6 C 320.6 344.9 325.6 339 327 334.3 C 327.6 332.2 331.8 292.2 336.5 245.5 C 341.2 198.7 345.4 156.4 345.9 151.5 C 346.7 143.8 346.6 142 345.2 139 C 342.1 132.5 339.7 132 312.3 132 L 288.1 132 L 287.8 111.4 L 287.5 90.8 L 283.8 87.4 C 280.8 84.7 279.2 84 275.9 84 C 272.4 84 271.1 84.6 267.9 87.9 Z"
        fill="#02C543"
        stroke="#00000000"/>
    <path
        id="path_1"
        d="M 157.5 181 C 120.8 186.2 93.4 206.6 86.4 233.9 C 84.5 241.4 85.1 244.8 89.1 248.6 L 92.1 251.5 L 174 251.5 L 255.9 251.5 L 258.9 248.6 C 262.9 244.8 263.6 240.6 261.5 233.4 C 254 207.7 231.5 189.5 198.5 182.5 C 189.4 180.6 166.4 179.7 157.5 181 Z"
        fill="#000000"
        stroke="#00000000"/>
    <path
        id="path_2"
        d="M 92.3 276.7 C 91.1 276.9 88.7 278.7 87 280.6 C 82.7 285.6 82.8 290.7 87.4 295.8 L 90.8 299.5 L 173.9 299.5 L 257 299.5 L 260.2 296.2 C 263.1 293.4 263.5 292.3 263.4 287.9 C 263.4 283.6 262.9 282.4 260.2 279.7 L 257 276.5 L 175.7 276.4 C 131.1 276.3 93.5 276.5 92.3 276.7 Z"
        fill="#000000"
        stroke="#00000000"/>
    <path
        id="path_3"
        d="M 91.4 325 C 87.5 326.6 84 331.8 84 336.2 C 84 339.6 84.7 340.9 87.9 344.1 L 91.8 348 L 173.8 348 L 255.8 348 L 258.9 345.5 C 264.9 340.4 265.1 332.3 259.4 326.9 L 256.8 324.5 L 175.2 324.3 C 130.3 324.2 92.6 324.5 91.4 325 Z"
        fill="#000000"
        stroke="#00000000"/>
</svg>
